# This file uses centimeters as units for non-parametric coordinates.

mtllib leaf.mtl
g default
v -0.167467 -0.167467 0.000000
v -0.100480 -0.224874 0.000000
v -0.027753 -0.253578 0.000000
v 0.027753 -0.253578 0.000000
v 0.100480 -0.224874 0.000000
v 0.167467 -0.167467 0.000000
v -0.192344 -0.100480 0.000000
v -0.100480 -0.136838 0.000000
v -0.039234 -0.146406 0.000000
v 0.039234 -0.146406 0.000000
v 0.100480 -0.136838 0.000000
v 0.192344 -0.100480 0.000000
v -0.199998 -0.033493 0.000000
v -0.100480 -0.046888 0.000000
v -0.043061 -0.059075 0.000000
v 0.043061 -0.059075 0.000000
v 0.100480 -0.046888 0.000000
v 0.199998 -0.033493 0.000000
v -0.199998 0.033493 0.000000
v -0.100480 0.063875 0.000000
v -0.043061 0.074149 0.000000
v 0.043061 0.074149 0.000000
v 0.100480 0.063875 0.000000
v 0.199998 0.033493 0.000000
v -0.192344 0.082684 0.000000
v -0.100480 0.164276 0.000000
v -0.037321 0.194893 0.000000
v 0.037321 0.194893 0.000000
v 0.100480 0.164276 0.000000
v 0.192344 0.082684 0.000000
v -0.167467 0.149671 0.000000
v -0.100480 0.272518 0.000000
v -0.018185 0.392699 0.000000
v 0.018185 0.392699 0.000000
v 0.100480 0.272518 0.000000
v 0.167467 0.149671 0.000000
v -0.167467 -0.167467 0.017435
v -0.100480 -0.224874 0.017435
v -0.100480 -0.136838 0.017435
v -0.192344 -0.100480 0.017435
v -0.027753 -0.253578 0.017435
v -0.039234 -0.146406 0.017435
v 0.027753 -0.253578 0.017435
v 0.039234 -0.146406 0.017435
v 0.100480 -0.224874 0.017435
v 0.100480 -0.136838 0.017435
v 0.167467 -0.167467 0.017435
v 0.192344 -0.100480 0.017435
v -0.100480 -0.046888 0.017435
v -0.199998 -0.033493 0.017435
v -0.043061 -0.059075 0.017435
v 0.043061 -0.059075 0.017435
v 0.100480 -0.046888 0.017435
v 0.199998 -0.033493 0.017435
v -0.100480 0.063875 0.017435
v -0.199998 0.033493 0.017435
v -0.043061 0.074149 0.017435
v 0.043061 0.074149 0.017435
v 0.100480 0.063875 0.017435
v 0.199998 0.033493 0.017435
v -0.100480 0.164276 0.017435
v -0.192344 0.082684 0.017435
v -0.037321 0.194893 0.017435
v 0.037321 0.194893 0.017435
v 0.100480 0.164276 0.017435
v 0.192344 0.082684 0.017435
v -0.100480 0.272518 0.017435
v -0.167467 0.149671 0.017435
v -0.018185 0.392699 0.017435
v 0.018185 0.392699 0.017435
v 0.100480 0.272518 0.017435
v 0.167467 0.149671 0.017435
v 0.181984 0.163967 0.008201
v 0.211300 0.085026 0.008201
v 0.220320 0.027057 0.008201
v 0.220320 -0.051884 0.008201
v 0.211300 -0.130826 0.008201
v 0.181984 -0.209767 0.008201
v 0.103043 -0.277419 0.008201
v 0.017336 -0.311245 0.008201
v -0.017336 -0.311245 0.008201
v -0.103043 -0.277419 0.008201
v -0.181984 -0.209767 0.008201
v -0.211300 -0.130826 0.008201
v -0.220320 -0.051884 0.008201
v -0.220320 0.027057 0.008201
v -0.211300 0.085026 0.008201
v -0.181984 0.163967 0.008201
v -0.103043 0.308738 0.008201
v -0.006061 0.450366 0.008201
v 0.006061 0.450366 0.008201
v 0.103043 0.308738 0.008201
vt 0.000000 0.000000
vt 0.200000 0.000000
vt 0.400000 0.000000
vt 0.600000 0.000000
vt 0.800000 0.000000
vt 1.000000 0.000000
vt 0.000000 0.200000
vt 0.200000 0.200000
vt 0.400000 0.200000
vt 0.600000 0.200000
vt 0.800000 0.200000
vt 1.000000 0.200000
vt 0.000000 0.400000
vt 0.200000 0.400000
vt 0.400000 0.400000
vt 0.600000 0.400000
vt 0.800000 0.400000
vt 1.000000 0.400000
vt 0.000000 0.600000
vt 0.200000 0.600000
vt 0.400000 0.600000
vt 0.600000 0.600000
vt 0.800000 0.600000
vt 1.000000 0.600000
vt 0.000000 0.800000
vt 0.200000 0.800000
vt 0.400000 0.800000
vt 0.600000 0.800000
vt 0.800000 0.800000
vt 1.000000 0.800000
vt 0.000000 1.000000
vt 0.200000 1.000000
vt 0.400000 1.000000
vt 0.600000 1.000000
vt 0.800000 1.000000
vt 1.000000 1.000000
vt 0.000000 0.000000
vt 0.200000 0.000000
vt 0.200000 0.200000
vt 0.000000 0.200000
vt 0.400000 0.000000
vt 0.400000 0.200000
vt 0.600000 0.000000
vt 0.600000 0.200000
vt 0.800000 0.000000
vt 0.800000 0.200000
vt 1.000000 0.000000
vt 1.000000 0.200000
vt 0.200000 0.400000
vt 0.000000 0.400000
vt 0.400000 0.400000
vt 0.600000 0.400000
vt 0.800000 0.400000
vt 1.000000 0.400000
vt 0.200000 0.600000
vt 0.000000 0.600000
vt 0.400000 0.600000
vt 0.600000 0.600000
vt 0.800000 0.600000
vt 1.000000 0.600000
vt 0.200000 0.800000
vt 0.000000 0.800000
vt 0.400000 0.800000
vt 0.600000 0.800000
vt 0.800000 0.800000
vt 1.000000 0.800000
vt 0.200000 1.000000
vt 0.000000 1.000000
vt 0.400000 1.000000
vt 0.600000 1.000000
vt 0.800000 1.000000
vt 1.000000 1.000000
vt 0.000000 0.000000
vt 0.200000 0.000000
vt 0.000000 0.200000
vt 0.400000 0.000000
vt 0.600000 0.000000
vt 0.800000 0.000000
vt 1.000000 0.000000
vt 1.000000 0.200000
vt 0.000000 0.400000
vt 1.000000 0.400000
vt 0.000000 0.600000
vt 1.000000 0.600000
vt 0.000000 0.800000
vt 1.000000 0.800000
vt 0.200000 1.000000
vt 0.000000 1.000000
vt 0.400000 1.000000
vt 0.600000 1.000000
vt 0.800000 1.000000
vt 1.000000 1.000000
vt 1.000000 1.000000
vt 1.000000 0.800000
vt 1.000000 0.600000
vt 1.000000 0.400000
vt 1.000000 0.200000
vt 1.000000 0.000000
vt 0.800000 0.000000
vt 0.600000 0.000000
vt 0.400000 0.000000
vt 0.200000 0.000000
vt 0.000000 0.000000
vt 0.000000 0.200000
vt 0.000000 0.400000
vt 0.000000 0.600000
vt 0.000000 0.800000
vt 0.000000 1.000000
vt 0.200000 1.000000
vt 0.400000 1.000000
vt 0.600000 1.000000
vt 0.800000 1.000000
vn 0.000000 0.000000 1.000000
vn 0.000000 -0.000000 1.000000
vn 0.000000 -0.000000 1.000000
vn 0.000000 0.000000 1.000000
vn 0.000000 -0.000000 1.000000
vn 0.000000 -0.000000 1.000000
vn 0.000000 -0.000000 1.000000
vn 0.000000 0.000000 1.000000
vn 0.000000 -0.000000 1.000000
vn 0.000000 -0.000000 1.000000
vn 0.000000 0.000000 1.000000
vn 0.000000 0.000000 1.000000
vn 0.000000 0.000000 1.000000
vn 0.000000 0.000000 1.000000
vn 0.000000 0.000000 1.000000
vn 0.000000 0.000000 1.000000
vn 0.000000 0.000000 1.000000
vn 0.000000 0.000000 1.000000
vn 0.000000 -0.000000 1.000000
vn 0.000000 -0.000000 1.000000
vn 0.000000 -0.000000 1.000000
vn 0.000000 -0.000000 1.000000
vn 0.000000 0.000000 1.000000
vn 0.000000 0.000000 1.000000
vn 0.000000 -0.000000 1.000000
vn 0.000000 -0.000000 1.000000
vn 0.000000 -0.000000 1.000000
vn 0.000000 -0.000000 1.000000
vn 0.000000 -0.000000 1.000000
vn 0.000000 0.000000 1.000000
vn 0.000000 0.000000 1.000000
vn 0.000000 0.000000 1.000000
vn 0.000000 0.000000 1.000000
vn 0.000000 0.000000 1.000000
vn 0.000000 -0.000000 1.000000
vn 0.000000 0.000000 1.000000
vn 0.000000 -0.000000 -1.000000
vn 0.000000 -0.000000 -1.000000
vn 0.000000 -0.000000 -1.000000
vn 0.000000 -0.000000 -1.000000
vn 0.000000 -0.000000 -1.000000
vn 0.000000 -0.000000 -1.000000
vn 0.000000 -0.000000 -1.000000
vn 0.000000 -0.000000 -1.000000
vn 0.000000 -0.000000 -1.000000
vn 0.000000 -0.000000 -1.000000
vn 0.000000 -0.000000 -1.000000
vn 0.000000 -0.000000 -1.000000
vn 0.000000 -0.000000 -1.000000
vn 0.000000 -0.000000 -1.000000
vn 0.000000 -0.000000 -1.000000
vn 0.000000 -0.000000 -1.000000
vn 0.000000 -0.000000 -1.000000
vn 0.000000 -0.000000 -1.000000
vn 0.000000 -0.000000 -1.000000
vn 0.000000 -0.000000 -1.000000
vn 0.000000 -0.000000 -1.000000
vn 0.000000 -0.000000 -1.000000
vn 0.000000 -0.000000 -1.000000
vn 0.000000 -0.000000 -1.000000
vn 0.000000 -0.000000 -1.000000
vn 0.000000 -0.000000 -1.000000
vn 0.000000 -0.000000 -1.000000
vn 0.000000 -0.000000 -1.000000
vn 0.000000 -0.000000 -1.000000
vn 0.000000 -0.000000 -1.000000
vn 0.000000 -0.000000 -1.000000
vn 0.000000 -0.000000 -1.000000
vn 0.000000 -0.000000 -1.000000
vn 0.000000 -0.000000 -1.000000
vn 0.000000 -0.000000 -1.000000
vn 0.000000 -0.000000 -1.000000
vn -0.125955 -0.146974 -0.981088
vn -0.125955 -0.146974 -0.981088
vn -0.650713 -0.759298 0.006223
vn -0.650724 -0.759311 -0.002071
vn -0.260617 -0.096784 -0.960579
vn -0.260617 -0.096784 -0.960579
vn -0.937382 -0.348110 0.011612
vn -0.937439 -0.348131 -0.003608
vn -0.059630 -0.151087 -0.986720
vn -0.059630 -0.151087 -0.986720
vn -0.367112 -0.930166 0.004374
vn -0.367115 -0.930174 -0.001598
vn 0.000000 -0.140788 -0.990040
vn 0.000000 -0.140788 -0.990040
vn 0.000000 -1.000000 -0.000868
vn 0.000000 -1.000000 -0.000868
vn 0.059630 -0.151087 -0.986720
vn 0.059630 -0.151087 -0.986720
vn 0.367115 -0.930174 -0.001599
vn 0.367112 -0.930166 0.004374
vn 0.125955 -0.146974 -0.981088
vn 0.125955 -0.146974 -0.981088
vn 0.650725 -0.759311 -0.002071
vn 0.650713 -0.759298 0.006223
vn 0.260617 -0.096784 -0.960579
vn 0.260617 -0.096784 -0.960579
vn 0.937439 -0.348131 -0.003606
vn 0.937382 -0.348110 0.011614
vn -0.343198 -0.039216 -0.938444
vn -0.343198 -0.039216 -0.938444
vn -0.993437 -0.113516 0.014038
vn -0.993526 -0.113526 -0.004300
vn 0.343198 -0.039216 -0.938444
vn 0.343198 -0.039216 -0.938444
vn 0.993526 -0.113526 -0.004299
vn 0.993437 -0.113516 0.014039
vn -0.374207 0.000000 -0.927345
vn -0.374207 0.000000 -0.927345
vn -0.999928 0.000000 0.012028
vn -0.999995 0.000000 -0.003106
vn 0.374207 -0.000000 -0.927345
vn 0.374207 -0.000000 -0.927345
vn 0.999995 -0.000000 -0.003106
vn 0.999928 0.000000 0.012028
vn -0.389987 0.060684 -0.918819
vn -0.389987 0.060684 -0.918819
vn -0.988082 0.153751 0.007326
vn -0.988109 0.153755 -0.000400
vn 0.389987 0.060684 -0.918818
vn 0.389987 0.060684 -0.918818
vn 0.988109 0.153755 -0.000400
vn 0.988082 0.153751 0.007326
vn -0.339025 0.184865 -0.922435
vn -0.339025 0.184865 -0.922435
vn -0.877954 0.478735 -0.002947
vn -0.877833 0.478669 0.016906
vn -0.378427 0.140534 -0.914901
vn -0.378427 0.140534 -0.914901
vn -0.937440 0.348131 0.003436
vn -0.937424 0.348125 0.006709
vn -0.281676 0.192882 -0.939923
vn -0.281676 0.192882 -0.939923
vn -0.825088 0.564990 -0.004034
vn -0.824966 0.564906 0.017656
vn 0.000000 0.140788 -0.990040
vn 0.000000 0.140788 -0.990040
vn 0.000000 0.999999 -0.000983
vn 0.000000 0.999999 -0.000983
vn 0.281676 0.192882 -0.939923
vn 0.281676 0.192882 -0.939923
vn 0.824966 0.564906 0.017656
vn 0.825088 0.564990 -0.004034
vn 0.378427 0.140534 -0.914901
vn 0.378427 0.140534 -0.914901
vn 0.937424 0.348125 0.006708
vn 0.937440 0.348131 0.003436
vn 0.339025 0.184865 -0.922435
vn 0.339025 0.184865 -0.922435
vn 0.877833 0.478669 0.016906
vn 0.877954 0.478735 -0.002947
vn 0.417113 0.154901 0.895557
vn 0.417113 0.154901 0.895557
vn 0.430252 0.066950 0.900223
vn 0.430252 0.066950 0.900223
vn 0.413681 0.000000 0.910422
vn 0.413681 0.000000 0.910422
vn 0.380419 -0.043469 0.923792
vn 0.380419 -0.043469 0.923792
vn 0.290471 -0.107871 0.950784
vn 0.290472 -0.107871 0.950784
vn 0.141124 -0.164673 0.976200
vn 0.141124 -0.164673 0.976200
vn 0.066909 -0.169531 0.983251
vn 0.066909 -0.169531 0.983251
vn 0.000000 -0.158113 0.987421
vn 0.000000 -0.158113 0.987421
vn -0.066909 -0.169531 0.983251
vn -0.066909 -0.169531 0.983251
vn -0.141124 -0.164673 0.976200
vn -0.141124 -0.164673 0.976200
vn -0.290471 -0.107871 0.950784
vn -0.290471 -0.107871 0.950784
vn -0.380419 -0.043469 0.923792
vn -0.380419 -0.043469 0.923792
vn -0.413681 0.000000 0.910422
vn -0.413681 0.000000 0.910422
vn -0.430252 0.066950 0.900223
vn -0.430252 0.066950 0.900223
vn -0.417113 0.154901 0.895557
vn -0.417113 0.154901 0.895557
vn -0.374349 0.204127 0.904541
vn -0.374349 0.204127 0.904541
vn -0.312338 0.213878 0.925582
vn -0.312338 0.213878 0.925582
vn 0.000000 0.158113 0.987421
vn 0.000000 0.158113 0.987421
vn 0.312338 0.213878 0.925582
vn 0.312338 0.213878 0.925582
vn 0.374349 0.204127 0.904541
vn 0.374349 0.204127 0.904541
s 1
g pPlane2
usemtl initialShadingGroup
f 37/73/1 38/74/2 39/8/3 40/75/4
f 38/74/2 41/76/5 42/9/6 39/8/3
f 41/76/5 43/77/7 44/10/8 42/9/6
f 43/77/7 45/78/9 46/11/10 44/10/8
f 45/78/9 47/79/11 48/80/12 46/11/10
f 40/75/4 39/8/3 49/14/13 50/81/14
f 39/8/3 42/9/6 51/15/15 49/14/13
f 42/9/6 44/10/8 52/16/16 51/15/15
f 44/10/8 46/11/10 53/17/17 52/16/16
f 46/11/10 48/80/12 54/82/18 53/17/17
f 50/81/14 49/14/13 55/20/19 56/83/20
f 49/14/13 51/15/15 57/21/21 55/20/19
f 51/15/15 52/16/16 58/22/22 57/21/21
f 52/16/16 53/17/17 59/23/23 58/22/22
f 53/17/17 54/82/18 60/84/24 59/23/23
f 56/83/20 55/20/19 61/26/25 62/85/26
f 55/20/19 57/21/21 63/27/27 61/26/25
f 57/21/21 58/22/22 64/28/28 63/27/27
f 58/22/22 59/23/23 65/29/29 64/28/28
f 59/23/23 60/84/24 66/86/30 65/29/29
f 62/85/26 61/26/25 67/87/31 68/88/32
f 61/26/25 63/27/27 69/89/33 67/87/31
f 63/27/27 64/28/28 70/90/34 69/89/33
f 64/28/28 65/29/29 71/91/35 70/90/34
f 65/29/29 66/86/30 72/92/36 71/91/35
s 2
f 1/37/37 7/40/38 8/39/39 2/38/40
f 2/38/40 8/39/39 9/42/41 3/41/42
f 3/41/42 9/42/41 10/44/43 4/43/44
f 4/43/44 10/44/43 11/46/45 5/45/46
f 5/45/46 11/46/45 12/48/47 6/47/48
f 7/40/38 13/50/49 14/49/50 8/39/39
f 8/39/39 14/49/50 15/51/51 9/42/41
f 9/42/41 15/51/51 16/52/52 10/44/43
f 10/44/43 16/52/52 17/53/53 11/46/45
f 11/46/45 17/53/53 18/54/54 12/48/47
f 13/50/49 19/56/55 20/55/56 14/49/50
f 14/49/50 20/55/56 21/57/57 15/51/51
f 15/51/51 21/57/57 22/58/58 16/52/52
f 16/52/52 22/58/58 23/59/59 17/53/53
f 17/53/53 23/59/59 24/60/60 18/54/54
f 19/56/55 25/62/61 26/61/62 20/55/56
f 20/55/56 26/61/62 27/63/63 21/57/57
f 21/57/57 27/63/63 28/64/64 22/58/58
f 22/58/58 28/64/64 29/65/65 23/59/59
f 23/59/59 29/65/65 30/66/66 24/60/60
f 25/62/61 31/68/67 32/67/68 26/61/62
f 26/61/62 32/67/68 33/69/69 27/63/63
f 27/63/63 33/69/69 34/70/70 28/64/64
f 28/64/64 34/70/70 35/71/71 29/65/65
f 29/65/65 35/71/71 36/72/72 30/66/66
s 3
f 1/1/73 2/2/74 82/102/75 83/103/76
s 4
f 7/7/77 1/1/78 83/103/79 84/104/80
s 5
f 2/2/81 3/3/82 81/101/83 82/102/84
s 6
f 3/3/85 4/4/86 80/100/87 81/101/88
s 7
f 4/4/89 5/5/90 79/99/91 80/100/92
s 8
f 5/5/93 6/6/94 78/98/95 79/99/96
s 9
f 6/6/97 12/12/98 77/97/99 78/98/100
s 10
f 13/13/101 7/7/102 84/104/103 85/105/104
s 11
f 12/12/105 18/18/106 76/96/107 77/97/108
s 12
f 19/19/109 13/13/110 85/105/111 86/106/112
s 13
f 18/18/113 24/24/114 75/95/115 76/96/116
s 14
f 25/25/117 19/19/118 86/106/119 87/107/120
s 15
f 24/24/121 30/30/122 74/94/123 75/95/124
s 16
f 32/32/125 31/31/126 88/108/127 89/109/128
s 17
f 31/31/129 25/25/130 87/107/131 88/108/132
s 18
f 33/33/133 32/32/134 89/109/135 90/110/136
s 19
f 34/34/137 33/33/138 90/110/139 91/111/140
s 20
f 35/35/141 34/34/142 91/111/143 92/112/144
s 21
f 30/30/145 36/36/146 73/93/147 74/94/148
s 22
f 36/36/149 35/35/150 92/112/151 73/93/152
s 21
f 74/94/148 73/93/147 72/92/153 66/86/154
s 15
f 75/95/124 74/94/123 66/86/155 60/84/156
s 13
f 76/96/116 75/95/115 60/84/157 54/82/158
s 11
f 77/97/108 76/96/107 54/82/159 48/80/160
s 9
f 78/98/100 77/97/99 48/80/161 47/79/162
s 8
f 79/99/96 78/98/95 47/79/163 45/78/164
s 7
f 80/100/92 79/99/91 45/78/165 43/77/166
s 6
f 81/101/88 80/100/87 43/77/167 41/76/168
s 5
f 82/102/84 81/101/83 41/76/169 38/74/170
s 3
f 83/103/76 82/102/75 38/74/171 37/73/172
s 4
f 84/104/80 83/103/79 37/73/173 40/75/174
s 10
f 85/105/104 84/104/103 40/75/175 50/81/176
s 12
f 86/106/112 85/105/111 50/81/177 56/83/178
s 14
f 87/107/120 86/106/119 56/83/179 62/85/180
s 17
f 88/108/132 87/107/131 62/85/181 68/88/182
s 16
f 89/109/128 88/108/127 68/88/183 67/87/184
s 18
f 90/110/136 89/109/135 67/87/185 69/89/186
s 19
f 91/111/140 90/110/139 69/89/187 70/90/188
s 20
f 92/112/144 91/111/143 70/90/189 71/91/190
s 22
f 73/93/152 92/112/151 71/91/191 72/92/192
